<?xml version="1.0" encoding="UTF-8" standalone="no"?>
<!-- Created with Inkscape (http://www.inkscape.org/) -->

<svg
   width="88px"
   height="80px"
   viewBox="0 0 188.00009 170.89407"
   version="1.1"
   id="svg5"
   sodipodi:docname="body.svg"
   inkscape:version="1.1 (c68e22c387, 2021-05-23)"
   xmlns:inkscape="http://www.inkscape.org/namespaces/inkscape"
   xmlns:sodipodi="http://sodipodi.sourceforge.net/DTD/sodipodi-0.dtd"
   xmlns="http://www.w3.org/2000/svg"
   xmlns:svg="http://www.w3.org/2000/svg">
  <sodipodi:namedview
     id="namedview7"
     pagecolor="#ffffff"
     bordercolor="#999999"
     borderopacity="1"
     inkscape:pageshadow="0"
     inkscape:pageopacity="0"
     inkscape:pagecheckerboard="0"
     showgrid="false"
     inkscape:zoom="10.4"
     inkscape:cx="43.846154"
     inkscape:cy="36.778846"
     inkscape:window-width="1920"
     inkscape:window-height="1017"
     inkscape:window-x="-8"
     inkscape:window-y="-8"
     inkscape:window-maximized="1"
     inkscape:current-layer="body" />
  <defs
     id="defs2">
    <path
       d=""
       id="d60JGsbgW" />
    <path
       d="M 299.09,135.17 V 374.26"
       id="a1AOC7gwyD" />
    <path
       d="m 341.99,109.8 c 0,24.84 -20.17,45 -45,45 -24.84,0 -45,-20.16 -45,-45 0,-24.83 20.16,-45 45,-45 24.83,0 45,20.17 45,45 z"
       id="f1fOYSExdh" />
    <path
       d="m 375.34,353.08 -3.65,-81.73 c -3.96,-37.1 -6.44,-60.28 -7.42,-69.55 -0.59,-5.49 -4.19,-10.2 -9.34,-12.2 -3.29,-1.27 -1.88,-0.73 -4.44,-1.72 -7.94,-3.09 -16.39,-4.67 -24.9,-4.67 0,0 0,0 0,0 v 156.18 l 8.02,217.81"
       id="hR6jDhqCP" />
    <path
       d="m 222.43,353.08 3.64,-81.73 c 3.96,-37.1 6.44,-60.28 7.43,-69.55 0.58,-5.49 4.18,-10.2 9.33,-12.2 3.29,-1.27 1.88,-0.73 4.44,-1.72 7.94,-3.09 16.39,-4.67 24.91,-4.67 0,0 0,0 0,0 v 156.18 l -8.03,217.81"
       id="axNMr8T4E" />
  </defs>
  <g
     id="body"
     transform="translate(-7.5124971,-43.681072)">
    <g
       id="bodyFill"
       style="fill:#ffffff;fill-opacity:1">
      <path
         id="frontBG"
         style="color:#000000;fill:#ffffff;fill-opacity:1;stroke:none;stroke-width:2.82222;stroke-linecap:round;stroke-linejoin:round;stroke-miterlimit:4;stroke-dasharray:none;stroke-opacity:1"
         d="m 50.628304,45.073258 c -8.2946,0 -15.01869,6.724125 -15.01873,15.01872 8.2e-4,5.549112 3.06134,10.645608 7.95921,13.253971 v 3.505212 l -7.58197,3.282486 c 0,0 0.31893,-0.05182 -1.81435,0.221682 -2.43786,0.312575 -3.79358,0.861003 -6.36602,1.629354 -2.40382,0.717985 -3.18453,1.792587 -3.83388,2.523361 -0.64934,0.730778 -1.0605,1.346871 -1.44332,1.974556 -0.76565,1.255365 -1.38092,2.549699 -2.02778,4.001822 -1.29372,2.90424 -2.60953,6.385315 -3.83388,9.828338 -2.44869,6.88606 -4.51548,13.58212 -4.51548,13.58212 l -0.2036,0.66404 -2.92178,28.11249 c -0.40298,3.8752 2.41133,7.34353 6.28643,7.74733 3.87519,0.40297 7.34353,-2.41133 7.74734,-6.28644 l 2.7714,-26.66038 c 0.16891,-0.54498 1.9197,-6.20256 4.13463,-12.43128 0.39935,-1.12302 0.77055,-1.95198 1.17771,-3.03702 l -0.31883,103.72751 c -0.0104,3.89776 3.1416,7.06558 7.03936,7.07451 3.89775,0.0104 7.06557,-3.1416 7.0745,-7.03936 l 0.16225,-53.55592 h 11.053094 l 0.16225,53.55592 c 0.009,3.89776 3.17674,7.04984 7.0745,7.03936 3.897761,-0.009 7.049849,-3.17675 7.039363,-7.07451 L 70.11189,102.00362 c 0.407141,1.08504 0.778356,1.914 1.177704,3.03702 2.214943,6.22872 3.965723,11.8863 4.134632,12.43128 l 2.771408,26.66038 c 0.403787,3.87511 3.872136,6.68943 7.747327,6.28644 3.875106,-0.40379 6.689422,-3.87213 6.286438,-7.74733 l -2.921784,-28.11249 -0.203594,-0.66404 c 0,0 -2.066796,-6.69606 -4.515484,-13.58212 -1.224343,-3.443023 -2.540156,-6.924098 -3.833874,-9.828338 -0.646861,-1.452123 -1.262129,-2.746448 -2.027782,-4.001822 -0.382843,-0.627685 -0.785193,-1.243778 -1.434538,-1.974556 -0.649345,-0.730774 -1.43884,-1.805893 -3.84266,-2.523878 -2.572443,-0.768351 -3.919378,-1.316248 -6.357231,-1.628837 -2.133278,-0.273498 -1.823663,-0.221682 -1.823663,-0.221682 l -7.586611,-3.282486 v -3.502112 c 4.90104,-2.607361 7.964091,-7.705622 7.96488,-13.257071 -4.1e-5,-8.294595 -6.72413,-15.01872 -15.018724,-15.01872 z" />
      <path
         id="backBG"
         style="color:#000000;fill:#ffffff;fill-opacity:1;stroke:none;stroke-width:2.82222;stroke-linecap:round;stroke-linejoin:round;stroke-miterlimit:4;stroke-dasharray:none;stroke-opacity:1"
         d="m 152.58892,45.4654 c -8.2946,0 -15.01869,6.724125 -15.01873,15.01872 8.2e-4,5.549112 3.06134,10.645608 7.95921,13.253971 v 3.505212 l -7.58197,3.282486 c 0,0 0.31893,-0.05182 -1.81435,0.221682 -2.43786,0.312575 -3.79358,0.861003 -6.36602,1.629354 -2.40382,0.717985 -3.18453,1.792587 -3.83388,2.523361 -0.64934,0.730778 -1.0605,1.346871 -1.44332,1.974556 -0.76565,1.255365 -1.38092,2.549699 -2.02778,4.001822 -1.29372,2.90424 -2.60953,6.385315 -3.83388,9.828346 -2.44869,6.88605 -4.51548,13.58211 -4.51548,13.58211 l -0.2036,0.66404 -2.92178,28.1125 c -0.40298,3.8752 2.41133,7.34353 6.28643,7.74733 3.87519,0.40297 7.34353,-2.41133 7.74734,-6.28644 l 2.7714,-26.66039 c 0.16891,-0.54498 1.9197,-6.20255 4.13463,-12.43128 0.39935,-1.12302 0.77055,-1.95197 1.17771,-3.03702 l -0.31883,103.72751 c -0.0104,3.89776 3.1416,7.06558 7.03936,7.07451 3.89775,0.0104 7.06557,-3.1416 7.0745,-7.03936 l 0.16225,-53.55591 h 11.05309 l 0.16225,53.55591 c 0.009,3.89776 3.17674,7.04984 7.0745,7.03936 3.89776,-0.009 7.04985,-3.17675 7.03936,-7.07451 L 172.0725,102.39576 c 0.40714,1.08505 0.77836,1.914 1.17771,3.03702 2.21494,6.22873 3.96572,11.8863 4.13463,12.43128 l 2.77141,26.66039 c 0.40378,3.87511 3.87213,6.68943 7.74732,6.28644 3.87511,-0.40379 6.68942,-3.87213 6.28644,-7.74733 l -2.92178,-28.1125 -0.2036,-0.66404 c 0,0 -2.06679,-6.69606 -4.51548,-13.58212 -1.22434,-3.443021 -2.54016,-6.924096 -3.83387,-9.828336 -0.64687,-1.452123 -1.26213,-2.746448 -2.02779,-4.001822 -0.38284,-0.627685 -0.78519,-1.243778 -1.43454,-1.974556 -0.64934,-0.730774 -1.43884,-1.805893 -3.84265,-2.523878 -2.57245,-0.768351 -3.91938,-1.316248 -6.35724,-1.628837 -2.13327,-0.273498 -1.82366,-0.221682 -1.82366,-0.221682 l -7.58661,-3.282486 v -3.502112 c 4.90104,-2.607361 7.96409,-7.705622 7.96488,-13.257071 -4e-5,-8.294595 -6.72413,-15.01872 -15.01872,-15.01872 z" />
    </g>
    <path
       d="m 44.515242,150.93172 c -2.732587,-5.25399 -6.743297,-8.12284 -11.795685,-8.43743 l -1.697929,-0.10572 v -15.94275 c 0,-8.7685 0.03007,-15.94274 0.06682,-15.94274 0.03675,0 1.255131,0.57179 2.70751,1.27065 6.068457,2.92003 11.114635,4.02066 17.502663,3.81753 5.592047,-0.17781 10.311176,-1.37227 16.384027,-4.14697 1.132983,-0.51767 2.103557,-0.94121 2.156831,-0.94121 0.05327,0 0.09686,7.17415 0.09686,15.94254 v 15.94255 l -1.60615,0.11035 c -3.294311,0.22633 -5.933855,1.33744 -8.196055,3.45008 -1.377387,1.28633 -2.9787,3.46328 -3.800806,5.16712 l -0.420698,0.87191 -5.424331,-2.7e-4 -5.424331,-2.6e-4 -0.548722,-1.05504 z"
       id="abdomen"
       style="display: none;fill:#dd1a35;fill-opacity:1;stroke:none;stroke-width:0.0244746;stroke-linecap:round;stroke-linejoin:round;stroke-miterlimit:4;stroke-dasharray:none;stroke-opacity:1" />
    <path
       d="m 46.184448,115.26409 c -4.022336,-0.46667 -8.177574,-1.7294 -12.391611,-3.76567 l -2.827369,-1.36622 0.110763,-6.56039 c 0.141417,-8.376063 0.502136,-11.615931 1.801113,-16.176958 0.608566,-2.136825 1.562304,-4.548415 2.415836,-6.108607 l 0.569162,-1.040384 1.477848,0.743048 c 8.658089,4.353202 17.651387,4.309763 26.433188,-0.127675 0.699172,-0.353293 1.290775,-0.622416 1.314672,-0.598056 0.193193,0.196924 1.695982,3.430439 2.184336,4.699984 0.747186,1.942409 1.638713,5.520073 2.018885,8.101726 0.344752,2.341128 0.682212,10.217962 0.607687,14.184342 l -0.0544,2.89542 -2.386277,1.1226 c -4.252351,2.00049 -9.503851,3.52797 -13.766997,4.00433 -1.894255,0.21167 -5.650169,0.20792 -7.506832,-0.007 z"
       id="chest"
       style="display: none;fill:#dd1a35;fill-opacity:1;stroke:none;stroke-width:0.0244746;stroke-linecap:round;stroke-linejoin:round;stroke-miterlimit:4;stroke-dasharray:none;stroke-opacity:1" />
    <g
       id="neck"
       style="display: none;">
      <path
         style="fill:#dd1a35;fill-opacity:1;stroke:none;stroke-width:0.0244746;stroke-linecap:round;stroke-linejoin:round;stroke-miterlimit:4;stroke-dasharray:none;stroke-opacity:1"
         d="m 47.400645,83.880744 c -1.867196,-0.235445 -4.459803,-0.862854 -6.19144,-1.49832 -2.101342,-0.771141 -5.085625,-2.204317 -4.91636,-2.361041 0.07909,-0.07323 1.733891,-0.812233 3.67733,-1.642223 l 3.533528,-1.509075 v -2.090176 c 0,-1.149596 0.02994,-2.878934 0.06654,-2.878934 0.03659,0 0.676759,0.252764 1.42259,0.561702 3.758629,1.556893 7.359946,1.482721 11.358633,-0.07359 l 1.102799,-0.44544 v 2.855447 2.066689 l 3.577797,1.537282 c 1.967785,0.845508 3.578523,1.584968 3.579417,1.643248 0.0032,0.209613 -3.617666,1.831943 -5.497689,2.463231 -3.693697,1.2403 -8.390659,1.790149 -11.71314,1.371198 z"
         id="path20961" />
      <path
         style="fill:#dd1a35;fill-opacity:1;stroke:none;stroke-width:0.0925026;stroke-linecap:round;stroke-linejoin:round;stroke-miterlimit:4;stroke-dasharray:none;stroke-opacity:1"
         d="m 562.99427,322.18675 c -21.83356,-1.70025 -39.2089,-5.62613 -52.61113,-11.88725 -6.40927,-2.99422 -6.23505,-3.16926 4.67898,-4.70087 6.02625,-0.8457 8.62877,-1.7224 20.98761,-7.07001 l 14.10831,-6.10461 7.4e-4,-6.67137 7.4e-4,-9.44645 4.75477,-2.12602 c 13.96217,-6.24296 27.42061,-6.47034 41.8606,-0.70721 l 5.76426,2.30057 0.34689,9.6929 0.34688,6.91783 14.0296,6.07497 c 12.38152,5.36133 14.89085,6.20286 21.36103,7.16359 10.93684,1.62396 11.10206,1.75541 5.40705,4.30185 -10.94402,4.89346 -26.8187,8.9597 -42.78823,10.96003 -8.29575,1.03912 -31.4866,1.82859 -38.2481,1.30205 z"
         id="path23439"
         transform="scale(0.26458333)" />
    </g>
    <path
       d="m 567.15689,433.73932 c 0,0 -35.45235,-4.9462 -54.54352,-14.94406 l -9.44848,-4.55988 0.19999,-47.43093 c 0.19732,-46.79692 0.2252,-46.65711 0.25602,-50.93038 l 0.056,-7.76959 4.26103,2.11412 c 35.31463,17.52141 104.24482,17.11176 139.41068,-0.82852 l 2.71374,-1.38445 v 50.916 55.18614 l -3.29541,1.61398 c -27.67913,13.5563 -36.88725,14.52382 -60.97675,17.24118 z"
       id="upperBack"
       transform="scale(0.26458333)"
       style="display: none;fill:#dd1a35;fill-opacity:1;stroke:none;stroke-width:0.0925026;stroke-linecap:round;stroke-linejoin:round;stroke-miterlimit:4;stroke-dasharray:none;stroke-opacity:1"
       sodipodi:nodetypes="sscsscsscccscs" />
    <path
       d="m 567.15689,513.31923 c -18.46392,-1.0098 -35.13488,-5.57738 -54.54352,-14.94406 l -9.44848,-4.55988 0.19999,-61.01775 c 0.15338,-46.79708 0.22669,-7.83763 0.25602,-12.11091 l 0.056,-7.76959 4.26103,2.11412 c 35.31462,17.52143 106.3594,20.76094 139.41068,-0.82852 l 2.71374,-1.38445 v 12.09653 68.77296 l -3.29541,1.61398 c -27.67909,13.55638 -53.66125,19.43674 -79.61009,18.01757 z"
       id="lowerBack"
       transform="scale(0.26458333)"
       style="display: none;fill:#dd1a35;fill-opacity:1;stroke:none;stroke-width:0.0925026;stroke-linecap:round;stroke-linejoin:round;stroke-miterlimit:4;stroke-dasharray:none;stroke-opacity:1"
       sodipodi:nodetypes="sscsscsscccsss" />
    <path
       d="m 531.08085,575.75943 c -9.61647,-1.37262 -18.99421,-5.35194 -25.14916,-10.67173 l -2.94852,-2.54844 v -33.90819 -33.90818 l 9.70595,4.74007 c 39.19626,19.14219 78.56801,19.9309 121.5537,2.43499 4.08195,-1.66142 9.31124,-3.97459 11.62064,-5.14038 l 4.19893,-2.11961 10e-4,16.48702 c 6.9e-4,9.06786 0.20518,24.14869 0.45413,33.51295 l 0.45263,17.02593 -2.70889,2.58794 c -6.29059,6.00975 -14.39245,9.63161 -25.18427,11.2584 -5.28946,0.79736 -15.02918,0.98781 -47.24849,0.92389 -22.32204,-0.0443 -42.45871,-0.34788 -44.74816,-0.67466 z"
       id="butt"
       transform="scale(0.26458333)"
       style="display: none;fill:#dd1a35;fill-opacity:1;stroke:none;stroke-width:0.0925026;stroke-linecap:round;stroke-linejoin:round;stroke-miterlimit:4;stroke-dasharray:none;stroke-opacity:1" />
    <g
       id="shoulders"
       style="display: none;">
      <path
         style="fill:#dd1a35;fill-opacity:1;stroke:none;stroke-width:0.0244746;stroke-linecap:round;stroke-linejoin:round;stroke-miterlimit:4;stroke-dasharray:none;stroke-opacity:1"
         d="m 29.234442,100.66136 c -4.776723,-3.193467 -6.84013,-6.888619 -6.84013,-12.24932 v -1.914925 l 0.794727,-1.075663 c 1.046602,-1.416574 2.158672,-2.397001 3.313342,-2.921116 1.93235,-0.877115 7.306725,-2.284645 8.723455,-2.284645 0.240707,0 0.126701,0.360201 -0.566452,1.78971 -2.216345,4.570835 -3.344267,9.723939 -3.774524,17.24458 l -0.13857,2.422119 z"
         id="path20922" />
      <path
         style="fill:#dd1a35;fill-opacity:1;stroke:none;stroke-width:0.0244746;stroke-linecap:round;stroke-linejoin:round;stroke-miterlimit:4;stroke-dasharray:none;stroke-opacity:1"
         d="m 70.044473,99.529661 c -0.412379,-7.997044 -1.51674,-13.072739 -3.860389,-17.74251 -0.658657,-1.312386 -0.736082,-1.57146 -0.469638,-1.57146 1.433229,0 6.795605,1.401548 8.741136,2.284645 1.188696,0.539559 2.260523,1.505688 3.324373,2.996541 l 0.834753,1.169802 -0.09874,2.418974 c -0.07756,1.900176 -0.200009,2.734749 -0.57092,3.891325 -1.03138,3.216036 -3.181355,5.777719 -6.751933,8.044892 l -1.03772,0.65891 z"
         id="path21000" />
      <path
         style="fill:#dd1a35;fill-opacity:1;stroke:none;stroke-width:0.0925026;stroke-linecap:round;stroke-linejoin:round;stroke-miterlimit:4;stroke-dasharray:none;stroke-opacity:1"
         d="m 496.73924,382.49951 c -7.2259,-4.75242 -15.41844,-12.97003 -18.92298,-18.9809 -4.48184,-7.6871 -6.18003,-14.16969 -6.57726,-25.10769 l -0.34553,-9.51468 2.18915,-3.4115 c 2.48975,-3.87993 8.5204,-9.82615 11.5559,-11.39411 1.12258,-0.57986 5.31912,-2.06798 9.32564,-3.30692 4.00652,-1.23895 7.59678,-2.36803 7.97836,-2.50907 0.45735,-0.16905 0.69377,13.10366 0.69377,38.94917 v 39.17987 c 0,-0.0142 -2.65367,-1.77102 -5.89705,-3.90417 z"
         id="path23517"
         transform="scale(0.26458333)" />
      <path
         style="fill:#dd1a35;fill-opacity:1;stroke:none;stroke-width:0.0925026;stroke-linecap:round;stroke-linejoin:round;stroke-miterlimit:4;stroke-dasharray:none;stroke-opacity:1"
         d="M 650.75616,346.91813 V 308.1002 l 3.29541,1.01521 c 1.81247,0.55836 5.01248,1.51997 7.11114,2.13691 8.17024,2.4018 12.63187,5.46113 17.59699,12.06619 2.79899,3.72347 3.1398,4.60104 3.55708,9.15928 1.4108,15.41101 -4.43016,31.016 -15.69444,41.93003 -4.13236,4.00387 -14.02208,11.32824 -15.29595,11.32824 -0.31363,0 -0.57023,-17.46807 -0.57023,-38.81793 z"
         id="path23712"
         transform="scale(0.26458333)" />
    </g>
    <g
       id="upperArms"
       style="display: none;fill:#dd1a35;fill-opacity:1">
      <path
         style="fill:#dd1a35;fill-opacity:1;stroke:none;stroke-width:0.0244746;stroke-linecap:round;stroke-linejoin:round;stroke-miterlimit:4;stroke-dasharray:none;stroke-opacity:1"
         d="m 79.162739,118.84738 c -0.528643,-0.14237 -1.60247,-0.55416 -2.38628,-0.91511 l -1.425106,-0.65625 -1.65204,-5.07301 c -0.908621,-2.79015 -2.081482,-6.23189 -2.60636,-7.64831 -0.524875,-1.41642 -0.937887,-2.58333 -0.9178,-2.59314 0.02008,-0.01 0.755915,-0.49043 1.63517,-1.06806 2.886199,-1.896075 4.691745,-3.880526 5.812409,-6.38834 0.75134,-1.681342 0.973796,-2.721585 1.11271,-5.203253 l 0.123301,-2.202719 1.018667,2.110941 c 1.908953,3.955843 4.206055,10.103463 7.29661,19.527551 l 1.859034,5.66878 -0.505037,0.66404 c -1.318678,1.73385 -3.115164,3.13969 -4.743399,3.71197 -1.182431,0.41559 -3.213806,0.44412 -4.621879,0.0649 z"
         id="path21039" />
      <path
         style="fill:#dd1a35;fill-opacity:1;stroke:none;stroke-width:0.0244746;stroke-linecap:round;stroke-linejoin:round;stroke-miterlimit:4;stroke-dasharray:none;stroke-opacity:1"
         d="m 17.148138,118.78131 c -1.63591,-0.58916 -3.245069,-1.80995 -4.457858,-3.38195 l -0.761199,-0.98665 1.288938,-4.01986 c 3.190892,-9.95157 6.323937,-18.313416 8.315088,-22.192302 l 0.659589,-1.28492 0.01222,1.927381 c 0.01622,2.559396 0.372258,4.140313 1.402445,6.227296 1.269597,2.571983 3.190924,4.416343 7.179234,6.891645 0.02217,0.0138 -0.219353,0.68146 -0.53671,1.48378 -0.317357,0.80233 -1.499004,4.22594 -2.625886,7.60803 l -2.048871,6.14926 -1.342953,0.67304 c -2.493695,1.24974 -5.175812,1.59249 -7.084033,0.90525 z"
         id="path21156" />
      <path
         style="fill:#dd1a35;fill-opacity:1;stroke:none;stroke-width:0.0925026;stroke-linecap:round;stroke-linejoin:round;stroke-miterlimit:4;stroke-dasharray:none;stroke-opacity:1"
         d="m 452.49764,451.26235 c -2.01083,-0.54136 -4.53471,-1.43867 -5.60862,-1.99401 -3.48645,-1.80291 -8.97241,-6.52632 -12.49221,-10.7558 l -3.44136,-4.1352 4.52279,-14.08754 c 11.3592,-35.38151 23.22595,-67.31938 30.62519,-82.42386 l 3.90836,-7.97836 0.43228,9.3659 c 0.49688,10.76526 2.2729,17.40269 6.67842,24.9589 3.55715,6.10111 11.75553,14.28066 19.09643,19.05256 3.33876,2.17035 6.07048,4.02804 6.07048,4.1282 0,0.10016 -1.2414,3.4366 -2.75866,7.41431 -1.51726,3.97771 -5.96606,16.97542 -9.88622,28.88379 l -7.12756,21.65158 -4.84552,2.18 c -6.04681,2.72046 -14.15341,4.82942 -18.33331,4.76949 -1.75143,-0.0251 -4.82965,-0.48859 -6.84049,-1.02996 z"
         id="path23556"
         transform="scale(0.26458333)" />
      <path
         style="fill:#dd1a35;fill-opacity:1;stroke:none;stroke-width:0.0925026;stroke-linecap:round;stroke-linejoin:round;stroke-miterlimit:4;stroke-dasharray:none;stroke-opacity:1"
         d="m 685.98141,451.30381 c -2.18501,-0.55414 -6.45537,-2.14236 -9.48969,-3.52938 l -5.51694,-2.52186 -6.67215,-20.21892 c -3.66968,-11.1204 -8.15815,-24.16488 -9.97437,-28.98772 l -3.30222,-8.7688 6.10496,-4.01706 c 17.58405,-11.5703 26.23234,-27.18337 26.23234,-47.35819 0,-3.61489 0.22347,-5.02769 0.71715,-4.534 1.18117,1.18116 9.22183,19.29137 13.51185,30.43312 5.26295,13.66858 14.99384,41.64906 20.44502,58.78822 l 4.35517,13.69318 -1.96971,2.61041 c -3.79575,5.0304 -9.54245,9.93474 -14.52881,12.39913 -4.14934,2.05072 -5.92869,2.51725 -10.4694,2.745 -3.39374,0.17023 -6.9786,-0.10809 -9.4432,-0.73313 z"
         id="path23751"
         transform="scale(0.26458333)" />
    </g>
    <g
       id="lowerArms"
       style="display: none;fill:#dd1a35;fill-opacity:1">
      <path
         style="fill:#dd1a35;fill-opacity:1;stroke:none;stroke-width:0.0244746;stroke-linecap:round;stroke-linejoin:round;stroke-miterlimit:4;stroke-dasharray:none;stroke-opacity:1"
         d="m 83.928419,150.12634 c -2.489597,-0.40148 -4.61469,-2.25814 -5.45629,-4.76708 -0.267081,-0.7962 -3.130214,-27.47375 -2.966188,-27.63778 0.04634,-0.0463 0.486905,0.1198 0.97904,0.36918 1.806914,0.91563 3.404169,1.27174 5.353068,1.19346 1.484313,-0.0596 1.95979,-0.15688 2.816873,-0.57621 1.336606,-0.65394 2.699599,-1.74734 3.621479,-2.90518 0.683236,-0.8581 0.74232,-0.89348 0.828553,-0.49609 0.177266,0.81689 2.858574,27.2727 2.858574,28.20486 0,4.011 -3.960981,7.27185 -8.035109,6.61484 z"
         id="path21078" />
      <path
         style="fill:#dd1a35;fill-opacity:1;stroke:none;stroke-width:0.0244746;stroke-linecap:round;stroke-linejoin:round;stroke-miterlimit:4;stroke-dasharray:none;stroke-opacity:1"
         d="m 14.793884,150.13646 c -3.023781,-0.48937 -5.5134323,-3.13752 -5.752758,-6.11902 -0.078506,-0.97802 2.561819,-28.08339 2.814723,-28.89572 0.04639,-0.14901 0.392782,0.14259 0.880242,0.74099 0.968357,1.18876 2.466719,2.37483 3.701952,2.93037 1.383737,0.62234 4.035491,0.69402 5.803878,0.15688 0.734949,-0.22323 1.738927,-0.60992 2.231062,-0.8593 0.492136,-0.24938 0.929428,-0.41879 0.971761,-0.37646 0.04233,0.0423 -0.553734,6.13979 -1.324593,13.54989 -1.501342,14.43207 -1.536545,14.64225 -2.710234,16.18106 -1.536226,2.01413 -4.172919,3.0867 -6.616033,2.69131 z"
         id="path21117" />
      <path
         style="fill:#dd1a35;fill-opacity:1;stroke:none;stroke-width:0.0925026;stroke-linecap:round;stroke-linejoin:round;stroke-miterlimit:4;stroke-dasharray:none;stroke-opacity:1"
         d="m 438.66102,568.61905 c -9.93921,-3.24378 -17.53211,-12.2542 -18.63174,-22.11009 -0.33396,-2.99327 8.82172,-96.64635 10.50429,-107.44788 l 0.39308,-2.52345 5.67583,5.72039 c 7.19639,7.25289 12.60127,10.04438 20.49224,10.58374 6.37722,0.43589 10.99116,-0.44971 18.80821,-3.61004 3.23061,-1.30609 6.00385,-2.24469 6.16277,-2.08577 0.38995,0.38995 -9.47542,96.10605 -10.40299,100.93226 -1.60649,8.3586 -7.36575,15.69258 -15.16212,19.30777 -4.62748,2.14578 -13.2226,2.73987 -17.83957,1.23307 z"
         id="path23595"
         transform="scale(0.26458333)" />
      <path
         style="fill:#dd1a35;fill-opacity:1;stroke:none;stroke-width:0.0925026;stroke-linecap:round;stroke-linejoin:round;stroke-miterlimit:4;stroke-dasharray:none;stroke-opacity:1"
         d="m 700.36071,568.61231 c -9.22202,-2.92419 -16.19705,-10.23117 -18.35332,-19.22676 -0.40102,-1.67297 -2.90703,-24.27112 -5.56891,-50.21811 -2.66188,-25.947 -5.01978,-48.49086 -5.23979,-50.09748 l -0.4,-2.92112 5.19376,2.39967 c 11.62945,5.37314 21.62146,5.87356 30.4176,1.52338 4.9315,-2.43889 11.05374,-7.56605 14.49974,-12.143 l 1.70767,-2.26811 5.42468,52.2902 c 2.98357,28.75961 5.39811,54.17749 5.36564,56.48419 -0.15071,10.70611 -7.59056,20.46579 -18.32871,24.04379 -3.92141,1.30663 -10.82106,1.36914 -14.71836,0.13335 z"
         id="path23790"
         transform="scale(0.26458333)" />
    </g>
    <g
       id="thighs"
       style="display: none;fill:#dd1a35;fill-opacity:1">
      <path
         style="fill:#dd1a35;fill-opacity:1;stroke:none;stroke-width:0.0244746;stroke-linecap:round;stroke-linejoin:round;stroke-miterlimit:4;stroke-dasharray:none;stroke-opacity:1"
         d="m 34.952662,177.847 c -0.614278,-0.0884 -1.770706,-0.34671 -2.56984,-0.57391 L 30.92985,176.86 30.87087,173.00524 c -0.03244,-2.12012 -0.0016,-9.83431 0.06831,-17.14265 l 0.127291,-13.28789 1.491948,0.11068 c 5.022344,0.37255 8.767008,2.97547 11.562775,8.03729 l 0.670028,1.21311 -0.04719,12.36243 -0.04719,12.36242 -1.376701,0.43174 c -2.681869,0.84105 -5.808865,1.12306 -8.367481,0.75463 z"
         id="path21234" />
      <path
         style="fill:#dd1a35;fill-opacity:1;stroke:none;stroke-width:0.0244746;stroke-linecap:round;stroke-linejoin:round;stroke-miterlimit:4;stroke-dasharray:none;stroke-opacity:1"
         d="m 61.309017,177.93422 c -1.508609,-0.22658 -2.811682,-0.50014 -3.900649,-0.81888 l -1.239027,-0.36267 v -12.38983 c 0,-14.12477 -0.187725,-12.47656 1.756219,-15.41966 2.47646,-3.74931 6.165006,-5.94999 10.496406,-6.26241 l 1.514369,-0.10923 v 5.22845 c 0,2.87565 0.05468,10.55277 0.121513,17.06028 l 0.121515,11.83184 -1.635884,0.48832 c -2.528536,0.75479 -5.303001,1.04387 -7.234462,0.75379 z"
         id="path21312" />
      <path
         style="fill:#dd1a35;fill-opacity:1;stroke:none;stroke-width:0.0925026;stroke-linecap:round;stroke-linejoin:round;stroke-miterlimit:4;stroke-dasharray:none;stroke-opacity:1"
         d="m 618.32776,674.25493 c -5.63297,-0.50425 -16.71303,-2.92936 -19.08402,-4.17695 -1.13766,-0.59864 -1.21409,-3.53654 -1.21409,-46.66666 v -46.02781 l 13.00818,-0.34497 c 10.2558,-0.27199 14.18254,-0.65749 18.55835,-1.82196 6.94976,-1.84944 12.8657,-4.73471 17.34424,-8.45897 l 3.46885,-2.88463 0.17784,52.59496 c 0.0978,28.92722 -0.0583,52.80805 -0.34688,53.0685 -0.90815,0.81958 -9.36644,3.31805 -13.70635,4.04867 -6.15931,1.03692 -11.79078,1.24411 -18.20612,0.66982 z"
         id="path23829"
         transform="scale(0.26458333)" />
      <path
         style="fill:#dd1a35;fill-opacity:1;stroke:none;stroke-width:0.0925026;stroke-linecap:round;stroke-linejoin:round;stroke-miterlimit:4;stroke-dasharray:none;stroke-opacity:1"
         d="m 523.44938,674.55954 c -5.02966,-0.29869 -11.11038,-1.47297 -16.56912,-3.19975 l -4.77504,-1.51051 0.43898,-6.18429 c 0.24143,-3.40136 0.43897,-27.21685 0.43897,-52.92331 v -46.73902 l 3.60628,2.8506 c 9.20931,7.27954 17.64661,9.66405 35.98396,10.16963 l 12.88009,0.35511 -0.29206,45.88153 c -0.16064,25.23484 -0.49324,46.09769 -0.73912,46.36188 -0.79387,0.85297 -13.63968,3.92483 -18.21131,4.35492 -7.71619,0.72593 -9.2093,0.79417 -12.76163,0.58321 z"
         id="path23868"
         transform="scale(0.26458333)" />
    </g>
    <g
       id="calves"
       style="display: none;fill:#dd1a35;fill-opacity:1">
      <path
         style="fill:#dd1a35;fill-opacity:1;stroke:none;stroke-width:0.0244746;stroke-linecap:round;stroke-linejoin:round;stroke-miterlimit:4;stroke-dasharray:none;stroke-opacity:1"
         d="m 35.46784,212.21124 c -2.000755,-0.74206 -3.578685,-2.33949 -4.278929,-4.33181 -0.334317,-0.95119 -0.350843,-1.69877 -0.350843,-15.87115 0,-8.18012 0.03534,-14.87294 0.07853,-14.87294 0.04319,0 0.848564,0.20843 1.78971,0.46318 2.145869,0.58085 5.183105,0.77665 7.283447,0.46954 1.370978,-0.20047 3.733144,-0.7466 4.496974,-1.03971 0.278011,-0.10669 0.300345,0.67338 0.282358,9.86192 -0.01074,5.48777 -0.07269,12.37322 -0.137667,15.301 l -0.11814,5.32324 -0.522851,1.06478 c -0.671459,1.36744 -2.019638,2.71037 -3.369087,3.35598 -1.436431,0.68722 -3.715604,0.80927 -5.153506,0.27597 z"
         id="path21273" />
      <path
         style="fill:#dd1a35;fill-opacity:1;stroke:none;stroke-width:0.0244746;stroke-linecap:round;stroke-linejoin:round;stroke-miterlimit:4;stroke-dasharray:none;stroke-opacity:1"
         d="m 61.002262,212.21832 c -2.033918,-0.75554 -3.494212,-2.19297 -4.312417,-4.24491 -0.400431,-1.00423 -0.402979,-1.08903 -0.480576,-15.99358 l -0.07801,-14.98399 1.462643,0.42364 c 3.787738,1.09708 7.959788,1.0624 11.315699,-0.0941 0.596313,-0.20549 1.113975,-0.37362 1.150361,-0.37362 0.03638,0 0.0441,6.83531 0.01714,15.18958 l -0.049,15.18959 -0.568034,1.19314 c -1.158031,2.4324 -3.339986,3.87419 -6.03179,3.98567 -1.120574,0.0464 -1.705785,-0.0239 -2.426028,-0.29144 z"
         id="path21351" />
      <path
         style="fill:#dd1a35;fill-opacity:1;stroke:none;stroke-width:0.0925026;stroke-linecap:round;stroke-linejoin:round;stroke-miterlimit:4;stroke-dasharray:none;stroke-opacity:1"
         d="m 522.40873,804.55778 c -7.07827,-2.04857 -12.24409,-5.76903 -15.81199,-11.38794 -4.42064,-6.96186 -4.30734,-5.20877 -4.30734,-66.64602 0,-52.86531 0.0638,-55.77085 1.2141,-55.30321 3.81947,1.55276 10.86431,3.15832 16.9751,3.86874 8.37723,0.97391 17.72713,0.12597 27.52564,-2.49629 3.52992,-0.94466 6.5516,-1.71757 6.71485,-1.71757 0.16325,0 0.29682,24.75402 0.29682,55.00894 0,59.86441 0.0172,59.57417 -3.92245,66.29799 -5.76432,9.83803 -18.48673,15.32682 -28.68473,12.37536 z"
         id="path27603"
         transform="scale(0.26458333)" />
      <path
         style="fill:#dd1a35;fill-opacity:1;stroke:none;stroke-width:0.0925026;stroke-linecap:round;stroke-linejoin:round;stroke-miterlimit:4;stroke-dasharray:none;stroke-opacity:1"
         d="m 618.1718,804.35621 c -7.37562,-1.98216 -13.89195,-7.55141 -17.2733,-14.76281 l -1.8282,-3.899 -0.45671,-57.23601 c -0.25118,-31.47981 -0.40728,-57.28677 -0.34688,-57.34879 0.0604,-0.062 2.87626,0.62665 6.25747,1.5304 13.93469,3.72452 27.31882,3.72078 40.20381,-0.0112 3.12134,-0.90407 5.7267,-1.59036 5.78969,-1.52508 0.063,0.0653 0.20383,25.4066 0.31297,56.31405 0.18547,52.52214 0.11709,56.43575 -1.04614,59.87289 -2.74621,8.1146 -10.12526,14.92684 -18.61764,17.18757 -4.56843,1.21615 -8.14065,1.18261 -12.99507,-0.12198 z"
         id="path27611"
         transform="scale(0.26458333)" />
    </g>
    <g
       id="separators">
      <path
         style="fill:none;stroke:#ffffff;stroke-width:2.82222222;stroke-linecap:butt;stroke-linejoin:miter;stroke-miterlimit:4;stroke-dasharray:none;stroke-opacity:1"
         d="m 11.948522,114.55892 c 4.627797,6.50654 9.255591,5.33817 13.883388,2.913"
         id="path10703" />
      <path
         style="fill:none;stroke:#ffffff;stroke-width:2.82222222;stroke-linecap:butt;stroke-linejoin:miter;stroke-miterlimit:4;stroke-dasharray:none;stroke-opacity:1"
         d="m 31.144242,110.32323 c 14.339558,8.10208 26.998068,6.11785 38.967639,0"
         id="path10705" />
      <path
         style="fill:none;stroke:#ffffff;stroke-width:2.82222222;stroke-linecap:butt;stroke-linejoin:miter;stroke-miterlimit:4;stroke-dasharray:none;stroke-opacity:1"
         d="m 65.268789,80.133647 c 3.78457,6.476098 4.848713,13.972355 4.842598,21.869963 5.190538,-2.928031 9.412831,-6.749829 8.484856,-15.325719"
         id="path10822" />
      <path
         style="fill:none;stroke:#ffffff;stroke-width:2.82222222;stroke-linecap:butt;stroke-linejoin:miter;stroke-miterlimit:4;stroke-dasharray:none;stroke-opacity:1"
         d="m 35.986839,80.133643 c 10.269287,5.849338 19.963613,5.086676 29.281941,0"
         id="path10857" />
      <path
         style="fill:none;stroke:#ffffff;stroke-width:2.82222;stroke-linecap:butt;stroke-linejoin:miter;stroke-miterlimit:4;stroke-dasharray:none;stroke-opacity:1"
         d="M 35.849174,80.133652 C 32.064604,86.60975 31.000461,94.106006 31.006576,102.00361 25.816038,99.075583 21.593745,95.253786 22.52172,86.677895"
         id="path11232" />
      <path
         style="fill:none;stroke:#ffffff;stroke-width:2.82222222;stroke-linecap:butt;stroke-linejoin:miter;stroke-miterlimit:4;stroke-dasharray:none;stroke-opacity:1"
         d="m 89.307615,114.55892 c -4.627798,6.50654 -9.255592,5.33817 -13.883389,2.913"
         id="path11530" />
      <path
         style="fill:none;stroke:#ffffff;stroke-width:2.82222222;stroke-linecap:butt;stroke-linejoin:miter;stroke-miterlimit:4;stroke-dasharray:none;stroke-opacity:1"
         d="m 45.101511,176.79577 c -4.894795,1.82596 -9.760857,2.00585 -14.588767,0"
         id="path11565" />
      <path
         style="fill:none;stroke:#ffffff;stroke-width:2.82222222;stroke-linecap:butt;stroke-linejoin:miter;stroke-miterlimit:4;stroke-dasharray:none;stroke-opacity:1"
         d="m 55.888617,176.79577 c 4.89479,1.82596 9.760843,2.00585 14.588757,0"
         id="path12893" />
      <path
         style="fill:none;stroke:#ffffff;stroke-width:2.82222222;stroke-linecap:butt;stroke-linejoin:miter;stroke-miterlimit:4;stroke-dasharray:none;stroke-opacity:1"
         d="m 56.154598,152.21036 c 3.467302,-7.71938 8.380652,-9.65457 13.781738,-9.63882"
         id="path13412" />
      <path
         style="fill:none;stroke:#ffffff;stroke-width:2.82222222;stroke-linecap:butt;stroke-linejoin:miter;stroke-miterlimit:4;stroke-dasharray:none;stroke-opacity:1"
         d="m 45.10152,152.21037 c -3.467302,-7.71938 -8.380652,-9.65457 -13.781738,-9.63882"
         id="path13551-7" />
      <path
         style="fill:none;stroke:#ffffff;stroke-width:2.82222222;stroke-linecap:butt;stroke-linejoin:miter;stroke-miterlimit:4;stroke-dasharray:none;stroke-opacity:1"
         d="m 113.90896,114.95106 c 4.6278,6.50654 9.25559,5.33818 13.88339,2.913"
         id="path13661-3" />
      <path
         style="fill:none;stroke:#ffffff;stroke-width:2.82222222;stroke-linecap:butt;stroke-linejoin:miter;stroke-miterlimit:4;stroke-dasharray:none;stroke-opacity:1"
         d="m 133.34782,130.70964 c 14.33956,8.10209 26.99807,6.11785 38.96764,0"
         id="path13663-5" />
      <path
         style="fill:none;stroke:#ffffff;stroke-width:2.82222222;stroke-linecap:butt;stroke-linejoin:miter;stroke-miterlimit:4;stroke-dasharray:none;stroke-opacity:1"
         d="m 133.13345,81.20009 c 10.26928,5.84934 29.59199,5.086679 38.91032,0"
         id="path13667-1" />
      <path
         style="fill:none;stroke:#ffffff;stroke-width:2.82222;stroke-linecap:butt;stroke-linejoin:miter;stroke-miterlimit:4;stroke-dasharray:none;stroke-opacity:1"
         d="m 132.85811,81.729259 c -0.17417,6.991873 -0.0349,12.768901 -0.0286,20.666501 -5.19054,-2.928025 -9.41283,-6.74982 -8.48486,-15.325711"
         id="path13669-2" />
      <path
         style="fill:none;stroke:#ffffff;stroke-width:2.82222222;stroke-linecap:butt;stroke-linejoin:miter;stroke-miterlimit:4;stroke-dasharray:none;stroke-opacity:1"
         d="m 191.26806,114.95106 c -4.6278,6.50654 -9.2556,5.33818 -13.8834,2.913"
         id="path13671-3" />
      <path
         style="fill:none;stroke:#ffffff;stroke-width:2.82222222;stroke-linecap:butt;stroke-linejoin:miter;stroke-miterlimit:4;stroke-dasharray:none;stroke-opacity:1"
         d="m 147.06195,177.18792 c -4.8948,1.82595 -9.76086,2.00584 -14.58877,0"
         id="path13673-4" />
      <path
         style="fill:none;stroke:#ffffff;stroke-width:2.82222222;stroke-linecap:butt;stroke-linejoin:miter;stroke-miterlimit:4;stroke-dasharray:none;stroke-opacity:1"
         d="m 157.84905,177.18792 c 4.89479,1.82595 9.76085,2.00584 14.58876,0"
         id="path13675-4" />
      <path
         style="fill:none;stroke:#ffffff;stroke-width:2.82222222;stroke-linecap:butt;stroke-linejoin:miter;stroke-miterlimit:4;stroke-dasharray:none;stroke-opacity:1"
         d="m 172.04377,81.729257 c 0.17417,6.99187 0.0349,12.768898 0.0286,20.666503 5.19054,-2.92803 9.41283,-6.749825 8.48485,-15.325716"
         id="path15398-2" />
      <path
         style="fill:none;stroke:#ffffff;stroke-width:2.82222;stroke-linecap:butt;stroke-linejoin:miter;stroke-miterlimit:4;stroke-dasharray:none;stroke-opacity:1"
         d="m 147.06198,152.60251 c -6.98611,0.3454 -10.8382,-0.0125 -13.98102,-3.764"
         id="path16331-3" />
      <path
         style="fill:none;stroke:#ffffff;stroke-width:2.82222;stroke-linecap:butt;stroke-linejoin:miter;stroke-miterlimit:4;stroke-dasharray:none;stroke-opacity:1"
         d="m 158.11507,152.60251 c 6.98611,0.3454 10.97796,-0.24416 14.12078,-3.99562"
         id="path16758-3" />
      <path
         style="fill:none;stroke:#ffffff;stroke-width:2.82222;stroke-linecap:butt;stroke-linejoin:miter;stroke-miterlimit:4;stroke-dasharray:none;stroke-opacity:1"
         d="m 133.34782,109.34599 c 14.33956,8.10209 26.99807,6.11785 38.96764,0"
         id="path915" />
    </g>
    <g
       id="bodyOutline"
       style="stroke:#380724;stroke-opacity:1">
      <path
         id="frontOutline"
         style="color:#000000;fill:none;fill-opacity:1;stroke:#380724;stroke-width:2.82222;stroke-linecap:round;stroke-linejoin:round;stroke-miterlimit:4;stroke-dasharray:none;stroke-opacity:1"
         d="m 50.563223,45.092182 c -8.2946,0 -15.01869,6.724125 -15.01873,15.01872 8.2e-4,5.549112 3.06134,10.645608 7.95921,13.253971 v 3.505212 l -7.58197,3.282486 c 0,0 0.31893,-0.05182 -1.81435,0.221682 -2.43786,0.312575 -3.79358,0.861003 -6.36602,1.629354 -2.40382,0.717985 -3.18453,1.792587 -3.83388,2.523361 -0.64934,0.730778 -1.0605,1.346871 -1.44332,1.974556 -0.76565,1.255365 -1.38092,2.549699 -2.02778,4.001822 -1.29372,2.90424 -2.60953,6.385315 -3.83388,9.828344 -2.44869,6.88605 -4.51548,13.58211 -4.51548,13.58211 l -0.2036,0.66405 -2.92178,28.11249 c -0.40298,3.8752 2.41133,7.34353 6.28643,7.74733 3.87519,0.40297 7.34353,-2.41133 7.74734,-6.28644 l 2.7714,-26.66039 c 0.16891,-0.54498 1.9197,-6.20255 4.13463,-12.43128 0.39935,-1.12301 0.77055,-1.95197 1.17771,-3.03702 l -0.31883,103.72751 c -0.0104,3.89776 3.1416,7.06558 7.03936,7.07451 3.89775,0.0104 7.06557,-3.1416 7.0745,-7.03936 l 0.16225,-53.55591 h 11.05309 l 0.16225,53.55591 c 0.009,3.89776 3.17674,7.04984 7.0745,7.03936 3.89776,-0.009 7.04985,-3.17675 7.03936,-7.07451 l -0.31883,-103.72751 c 0.40714,1.08505 0.77836,1.91401 1.17771,3.03702 2.21494,6.22873 3.96572,11.8863 4.13463,12.43128 l 2.77141,26.66039 c 0.40378,3.87511 3.87213,6.68943 7.74732,6.28644 3.875106,-0.40379 6.689416,-3.87213 6.286436,-7.74733 l -2.92178,-28.11249 -0.2036,-0.66405 c 0,0 -2.066786,-6.69606 -4.515476,-13.58211 -1.22434,-3.443029 -2.54016,-6.924104 -3.83388,-9.828344 -0.64686,-1.452123 -1.26212,-2.746448 -2.02778,-4.001822 -0.38284,-0.627685 -0.78519,-1.243778 -1.43454,-1.974556 -0.64934,-0.730774 -1.43884,-1.805893 -3.84266,-2.523878 -2.57244,-0.768351 -3.91937,-1.316248 -6.35723,-1.628837 -2.13327,-0.273498 -1.82366,-0.221682 -1.82366,-0.221682 l -7.58661,-3.282486 v -3.502112 c 4.90104,-2.607361 7.96409,-7.705622 7.96488,-13.257071 -4e-5,-8.294595 -6.72413,-15.01872 -15.01872,-15.01872 z" />
      <path
         id="backOutline"
         style="color:#000000;fill:none;fill-opacity:1;stroke:#380724;stroke-width:2.82222;stroke-linecap:round;stroke-linejoin:round;stroke-miterlimit:4;stroke-dasharray:none;stroke-opacity:1"
         d="m 152.46235,45.431628 c -8.2946,0 -15.01869,6.724125 -15.01873,15.01872 8.2e-4,5.549112 3.06134,10.645608 7.95921,13.253971 v 3.505212 l -7.58197,3.282486 c 0,0 0.31893,-0.05182 -1.81435,0.221682 -2.43786,0.312575 -3.79358,0.861003 -6.36602,1.629354 -2.40382,0.717985 -3.18453,1.792587 -3.83388,2.523361 -0.64934,0.730778 -1.0605,1.346871 -1.44332,1.974556 -0.76565,1.255365 -1.38092,2.549699 -2.02778,4.001822 -1.29372,2.90424 -2.60953,6.385315 -3.83388,9.828348 -2.44869,6.88605 -4.51548,13.58211 -4.51548,13.58211 l -0.2036,0.66405 -2.92178,28.11249 c -0.40298,3.8752 2.41133,7.34353 6.28643,7.74733 3.87519,0.40297 7.34353,-2.41133 7.74734,-6.28644 l 2.7714,-26.66039 c 0.16891,-0.54498 1.9197,-6.20255 4.13463,-12.43128 0.39935,-1.12301 0.77055,-1.95197 1.17771,-3.03702 l -0.31883,103.72751 c -0.0104,3.89776 3.1416,7.06558 7.03936,7.07451 3.89775,0.0104 7.06557,-3.1416 7.0745,-7.03936 l 0.16225,-53.55591 h 11.05309 l 0.16225,53.55591 c 0.009,3.89776 3.17674,7.04984 7.0745,7.03936 3.89776,-0.009 7.04985,-3.17675 7.03936,-7.07451 l -0.31883,-103.72751 c 0.40714,1.08505 0.77836,1.91401 1.17771,3.03702 2.21494,6.22873 3.96572,11.8863 4.13463,12.43128 l 2.77141,26.66039 c 0.40378,3.87511 3.87213,6.68943 7.74732,6.28644 3.87511,-0.40379 6.68942,-3.87213 6.28644,-7.74733 l -2.92178,-28.11249 -0.2036,-0.66405 c 0,0 -2.06679,-6.69606 -4.51548,-13.58211 -1.22434,-3.443033 -2.54016,-6.924108 -3.83388,-9.828348 -0.64686,-1.452123 -1.26212,-2.746448 -2.02778,-4.001822 -0.38284,-0.627685 -0.78519,-1.243778 -1.43454,-1.974556 -0.64934,-0.730774 -1.43884,-1.805893 -3.84266,-2.523878 -2.57244,-0.768351 -3.91937,-1.316248 -6.35723,-1.628837 -2.13327,-0.273498 -1.82366,-0.221682 -1.82366,-0.221682 l -7.58661,-3.282486 v -3.502112 c 4.90104,-2.607361 7.96409,-7.705622 7.96488,-13.257071 -4e-5,-8.294595 -6.72413,-15.01872 -15.01872,-15.01872 z" />
    </g>
    <path
       style="fill:none;fill-opacity:1;stroke:#380724;stroke-width:2.82222;stroke-linecap:round;stroke-linejoin:miter;stroke-miterlimit:4;stroke-dasharray:none;stroke-opacity:1"
       d="m 42.939567,62.679526 c 2.932124,6.692176 12.441238,6.736805 15.235476,0"
       id="path3301" />
    <circle
       style="fill:#380724;fill-opacity:1;stroke:none;stroke-width:3.88057;stroke-linecap:round;stroke-linejoin:round;stroke-miterlimit:4;stroke-dasharray:none;stroke-opacity:1"
       id="path11650"
       cx="45.142288"
       cy="55.979591"
       r="2.0191593" />
    <circle
       style="fill:#380724;fill-opacity:1;stroke:none;stroke-width:3.88057;stroke-linecap:round;stroke-linejoin:round;stroke-miterlimit:4;stroke-dasharray:none;stroke-opacity:1"
       id="circle11776"
       cx="55.696987"
       cy="55.796028"
       r="2.0191593" />
  </g>
</svg>
